<svg xmlns="http://www.w3.org/2000/svg" width="512" height="512" viewBox="0 0 512 512">
  <g>
    <path d="M256,496 C123.45166,496 16,388.54834 16,256 C16,123.45166 123.45166,16 256,16 C388.54834,16 496,123.45166 496,256 C496,388.54834 388.54834,496 256,496 Z M256,466 C371.979797,466 466,371.979797 466,256 C466,140.020203 371.979797,46 256,46 C140.020203,46 46,140.020203 46,256 C46,371.979797 140.020203,466 256,466 Z"/>
    <polygon points="206.159 345.477 146.5 285.818 166.382 265.936 206.159 305.714 345.359 166.5 365.241 186.395"/>
  </g>
</svg>
