<svg xmlns="http://www.w3.org/2000/svg" width="512" height="512" viewBox="0 0 512 512">
  <g>
    <path d="M285.179587,397.209064 C314.501463,398.608177 340.540013,402.176436 359.113283,407.223378 C368.006862,409.640044 374.901905,412.325955 379.373488,415.059309 C381.334506,416.258025 382.712024,417.396968 383.492951,418.374853 C383.929381,418.921357 384.03202,419.17978 384.03202,419.256794 C383.852974,419.648059 383.599164,420.012727 383.188874,420.451452 C382.042898,421.676851 380.073387,423.053664 377.328642,424.456197 C371.270032,427.552076 362.096039,430.454372 350.44226,432.919743 C326.214431,438.04517 292.970592,440.965301 257,440.965301 C221.029408,440.965301 187.785569,438.04517 163.55774,432.919743 C151.903961,430.454372 142.729968,427.552076 136.671358,424.456197 C133.926613,423.053664 131.957102,421.676851 130.811126,420.451452 C130.400836,420.012727 130.147026,419.648059 130.020975,419.374646 C129.96798,419.177801 130.073579,418.913774 130.520455,418.358127 C131.317155,417.367505 132.720304,416.215699 134.715306,415.005233 C139.25629,412.249997 146.251102,409.547374 155.265271,407.120999 C174.091626,402.053443 200.453047,398.497485 230.074713,397.150626 L229.448206,383.371758 C198.898504,384.760814 171.576868,388.446298 151.680141,393.801969 C129.116842,399.87541 116.174877,407.727933 116.174877,419.256794 C116.174877,432.143415 132.374598,440.421284 160.702974,446.414187 C185.954915,451.756266 220.132357,454.758405 257,454.758405 C293.867643,454.758405 328.045085,451.756266 353.297026,446.414187 C381.625402,440.421284 397.825123,432.143415 397.825123,419.256794 C397.825123,407.792752 385.033101,399.973346 362.73015,393.912932 C343.085387,388.574831 316.086963,384.875034 285.836986,383.431636 L285.179587,397.209064 Z M203.867008,341.122781 C117.453168,350.242315 56.6605911,380.430874 56.6605911,419.285206 C56.6605911,466.18334 145.899146,500.180199 257,500.180199 C368.127135,500.180199 457.339409,466.202413 457.339409,419.285206 C457.339409,380.560211 396.958598,350.442112 310.962536,341.211127 L309.490414,354.925446 C388.976722,363.457662 443.546305,390.677106 443.546305,419.285206 C443.546305,435.784959 425.089351,452.570479 391.445355,465.384282 C356.387256,478.736666 308.489889,486.387095 257,486.387095 C205.517339,486.387095 157.618838,478.731894 122.555217,465.373845 C88.9133736,452.557445 70.4536946,435.771965 70.4536946,419.285206 C70.4536946,390.567438 125.422193,363.271018 205.314601,354.839711 L203.867008,341.122781 Z"/>
    <path d="M257,12.848213 C335.214521,12.848213 397.825123,75.108932 397.825123,152.924912 C397.825123,180.512118 381.081105,225.421122 351.60256,283.683568 C344.943244,296.845276 337.71759,310.504764 330.01093,324.554685 C315.306797,351.361616 299.55999,378.330012 283.8136,404.13811 C278.302338,413.170987 273.183902,421.415054 268.588898,428.704495 C266.979207,431.258083 265.549436,433.51069 264.315915,435.441574 C263.883314,436.118744 263.505907,436.707692 263.185737,437.205826 C262.992411,437.506612 257.000397,446.776437 257.000397,446.776437 L251.208462,437.817926 C250.494318,436.70819 250.116909,436.119316 249.684306,435.442232 C248.45078,433.511593 247.021003,431.259266 245.411308,428.705987 C240.816293,421.417433 235.697846,413.174309 230.186572,404.142387 C214.440151,378.337023 198.693314,351.370914 183.989152,324.565488 C176.277328,310.506971 169.047177,296.839215 162.384192,283.669742 C132.913882,225.421295 116.174877,180.517824 116.174877,152.924912 C116.174877,75.108932 178.785479,12.848213 257,12.848213 Z M272.039078,396.954077 C287.682197,371.315239 303.324899,344.525136 317.917642,317.921278 C325.553674,304.000118 332.708323,290.47486 339.29512,277.456479 C367.780569,221.156826 384.03202,177.568932 384.03202,152.924912 C384.03202,82.7440092 327.61405,26.6413164 257,26.6413164 C186.38595,26.6413164 129.96798,82.7440092 129.96798,152.924912 C129.96798,177.575079 146.214231,221.156704 174.69173,277.442847 C181.282108,290.468814 188.441169,304.002181 196.082277,317.931784 C210.674989,344.534039 226.317661,371.321767 241.96075,396.95779 C247.403978,405.878197 252.459838,414.021425 256.999628,421.223809 C261.539567,414.020303 266.595623,405.875818 272.039078,396.954077 Z M257,205.210066 C285.928336,205.210066 309.617734,181.65305 309.617734,152.924912 C309.617734,124.196774 285.928336,100.639758 257,100.639758 C228.071664,100.639758 204.382266,124.196774 204.382266,152.924912 C204.382266,181.65305 228.071664,205.210066 257,205.210066 Z M257,219.003169 C220.471193,219.003169 190.589163,189.288127 190.589163,152.924912 C190.589163,116.561697 220.471193,86.8466542 257,86.8466542 C293.528807,86.8466542 323.410837,116.561697 323.410837,152.924912 C323.410837,189.288127 293.528807,219.003169 257,219.003169 Z"/>
  </g>
</svg>
