<svg xmlns="http://www.w3.org/2000/svg" width="512" height="200" viewBox="0 0 512 200">
  <path d="M110.353982,3.42 C108.324484,2.02666667 106.168142,1.39333333 104.265487,1.39333333 C102.743363,1.39333333 100.460177,1.77333333 98.3038348,3.8 C97.2890855,3.29333333 96.1474926,3.29333333 95.1327434,3.8 C94.2448378,4.30666667 93.4837758,5.19333333 93.2300885,6.20666667 C92.8495575,8.10666667 92.7227139,9.88 92.8495575,11.6533333 C91.5811209,11.4 90.3126844,11.2733333 88.9174041,11.2733333 C86.8879056,11.2733333 85.3657817,12.7933333 85.3657817,14.6933333 C85.3657817,15.2 85.3657817,15.58 85.4926254,15.96 C85.1120944,16.2133333 84.8584071,16.5933333 84.4778761,16.8466667 C83.4631268,15.8333333 82.0678466,15.2 80.5457227,15.0733333 L79.7846608,15.0733333 C78.0088496,15.0733333 76.359882,15.7066667 75.0914454,16.8466667 C74.8377581,16.5933333 74.4572271,16.2133333 74.2035398,15.96 C74.2035398,15.58 74.3303835,15.2 74.3303835,14.6933333 C74.3303835,12.7933333 72.6814159,11.2733333 70.7787611,11.2733333 C69.5103245,11.2733333 68.3687316,11.2733333 67.2271386,11.5266667 C67.480826,10.3866667 67.480826,9.24666667 67.480826,7.98 C67.480826,6.08 65.9587021,4.56 64.0560472,4.56 L62.7876106,4.56 C61.3923304,3.04 60.1238938,2.02666667 58.2212389,1.14 C57.2064897,0.633333333 56.0648968,0.633333333 55.0501475,1.14 C53.1474926,2.02666667 51.879056,3.04 50.4837758,4.56 L49.2153392,4.56 C47.3126844,4.56 45.7905605,6.08 45.7905605,7.98 C45.7905605,9.24666667 45.7905605,10.3866667 46.0442478,11.5266667 C44.9026549,11.2733333 43.7610619,11.2733333 42.4926254,11.2733333 C40.5899705,11.2733333 38.9410029,12.7933333 38.9410029,14.6933333 C38.9410029,15.2 39.0678466,15.58 39.0678466,15.96 C38.8141593,16.2133333 38.4336283,16.5933333 38.179941,16.8466667 C37.0383481,15.8333333 35.7699115,15.2 34.2477876,15.0733333 L33.4867257,15.0733333 C31.5840708,15.0733333 29.9351032,15.7066667 28.6666667,16.8466667 C28.4129794,16.5933333 28.159292,16.2133333 27.7787611,15.96 C27.7787611,15.58 27.9056047,15.2 27.9056047,14.6933333 C27.9056047,12.7933333 26.2566372,11.2733333 24.3539823,11.2733333 C22.9587021,11.2733333 21.6902655,11.4 20.4218289,11.6533333 C20.5486726,9.88 20.4218289,8.10666667 20.0412979,6.20666667 C19.7876106,5.19333333 19.0265487,4.30666667 18.0117994,3.8 C17.1238938,3.29333333 15.9823009,3.29333333 14.9675516,3.8 C12.8112094,1.77333333 10.5280236,1.39333333 9.00589971,1.39333333 C6.97640118,1.39333333 4.94690265,2.02666667 2.91740413,3.42 C1.77581121,4.05333333 1.14159292,5.44666667 1.26843658,6.71333333 C1.39528024,8.10666667 2.28318584,9.24666667 3.55162242,9.62666667 C5.45427729,10.26 5.96165192,11.1466667 6.34218289,17.6066667 C4.69321534,19.2533333 4.05899705,21.9133333 5.07374631,24.7 C5.58112094,26.22 6.59587021,27.4866667 7.73746313,28.2466667 L10.020649,33.3133333 C8.37168142,34.58 7.35693215,36.6066667 7.35693215,38.76 L7.35693215,38.8866667 L7.35693215,39.0133333 C7.35693215,42.94 10.6548673,46.2333333 14.5870206,46.2333333 L98.5575221,46.2333333 C102.616519,46.2333333 105.914454,42.94 105.914454,38.8866667 C105.914454,36.6066667 104.899705,34.58 103.250737,33.3133333 L105.533923,28.2466667 C106.675516,27.4866667 107.690265,26.22 108.19764,24.7 C109.212389,21.7866667 108.578171,19 106.675516,17.3533333 C106.929204,10.8933333 107.817109,10.26 109.59292,9.62666667 C110.988201,9.24666667 111.876106,8.10666667 112.00295,6.71333333 C112.129794,5.44666667 111.495575,4.05333333 110.353982,3.42 L110.353982,3.42 Z M102.99705,19.8866667 C103.377581,19.76 103.758112,19.76 104.011799,19.8866667 C105.026549,20.2666667 105.40708,21.9133333 104.899705,23.56 C104.519174,24.7 103.631268,25.5866667 102.870206,25.7133333 L98.5575221,35.0866667 C100.713864,35.0866667 102.362832,36.86 102.362832,38.8866667 C102.362832,41.04 100.713864,42.6866667 98.5575221,42.6866667 L14.5870206,42.6866667 C12.5575221,42.6866667 10.9085546,41.04 10.9085546,38.8866667 C10.9085546,36.86 12.5575221,35.0866667 14.5870206,35.0866667 L14.7138643,35.0866667 L10.4011799,25.7133333 C9.64011799,25.5866667 8.75221239,24.7 8.37168142,23.56 C7.86430678,21.9133333 8.24483776,20.2666667 9.25958702,19.8866667 C9.51327434,19.76 9.76696165,19.76 10.020649,19.76 C9.64011799,11.4 9.38643068,7.85333333 4.69321534,6.33333333 C8.75221239,3.8 12.3038348,4.43333333 14.460177,9.5 C15.0943953,8.23333333 15.3480826,7.6 16.6165192,6.96666667 C17.6312684,11.6533333 16.3628319,15.2 13.4454277,19 C16.6165192,15.8333333 20.8023599,14.6933333 24.3539823,14.6933333 C24.3539823,15.3266667 24.100295,16.2133333 23.339233,16.8466667 C26.0029499,19 27.1445428,20.0133333 28.159292,22.1666667 C27.1445428,24.1933333 26.0029499,25.3333333 23.339233,27.36 C24.100295,27.9933333 24.3539823,28.88 24.3539823,29.5133333 C20.8023599,29.5133333 16.6165192,28.5 13.4454277,25.3333333 C14.840708,28.88 19.660767,32.1733333 21.8171091,32.1733333 C23.5929204,32.1733333 28.4129794,29.5133333 31.7109145,24.8266667 C30.6961652,24.32 30.0619469,23.18 30.0619469,21.9133333 C30.0619469,19.8866667 31.7109145,18.3666667 33.8672566,18.4933333 C35.3893805,18.7466667 36.6578171,20.0133333 36.7846608,21.5333333 C36.9115044,22.9266667 36.2772861,24.1933333 35.1356932,24.8266667 C38.4336283,29.5133333 43.2536873,32.1733333 45.0294985,32.1733333 C47.1858407,32.1733333 52.3864307,29.5133333 53.4011799,25.3333333 C50.3569322,28.5 46.0442478,29.5133333 42.4926254,29.5133333 C42.4926254,28.88 42.7463127,27.9933333 43.5073746,27.36 C40.8436578,25.3333333 39.7020649,24.1933333 38.6873156,22.1666667 C39.7020649,20.0133333 40.8436578,19 43.5073746,16.8466667 C42.7463127,16.2133333 42.4926254,15.3266667 42.4926254,14.6933333 C46.0442478,14.6933333 50.3569322,15.8333333 53.4011799,19 C50.3569322,15.8333333 49.2153392,11.6533333 49.2153392,7.98 C49.8495575,7.98 50.7374631,8.23333333 51.3716814,9.12 C53.4011799,6.33333333 54.5427729,5.32 56.5722714,4.18 C58.7286136,5.32 59.7433628,6.33333333 61.899705,9.12 C62.5339233,8.23333333 63.4218289,7.98 64.0560472,7.98 C64.0560472,11.6533333 62.9144543,15.8333333 59.7433628,19 C62.9144543,15.8333333 67.2271386,14.6933333 70.7787611,14.6933333 C70.7787611,15.3266667 70.5250737,16.2133333 69.6371681,16.8466667 C72.4277286,19 73.4424779,20.0133333 74.5840708,22.1666667 C73.4424779,24.1933333 72.4277286,25.3333333 69.6371681,27.36 C70.5250737,27.9933333 70.7787611,28.88 70.7787611,29.5133333 C67.2271386,29.5133333 62.9144543,28.5 59.7433628,25.3333333 C60.8849558,29.5133333 66.0855457,32.1733333 68.2418879,32.1733333 C70.0176991,32.1733333 74.8377581,29.5133333 78.1356932,24.8266667 C77.120944,24.32 76.4867257,23.18 76.4867257,21.9133333 C76.4867257,19.8866667 78.1356932,18.3666667 80.1651917,18.4933333 C81.8141593,18.7466667 83.0825959,20.0133333 83.2094395,21.5333333 C83.3362832,22.9266667 82.5752212,24.1933333 81.4336283,24.8266667 C84.8584071,29.5133333 89.6784661,32.1733333 91.4542773,32.1733333 C93.4837758,32.1733333 98.4306785,28.88 99.8259587,25.3333333 C96.6548673,28.5 92.4690265,29.5133333 88.9174041,29.5133333 C88.9174041,28.88 89.0442478,27.9933333 89.9321534,27.36 C87.1415929,25.3333333 86.1268437,24.1933333 85.1120944,22.1666667 C86.1268437,20.0133333 87.1415929,19 89.9321534,16.8466667 C89.0442478,16.2133333 88.9174041,15.3266667 88.9174041,14.6933333 C92.4690265,14.6933333 96.6548673,15.8333333 99.8259587,19 C96.9085546,15.2 95.640118,11.6533333 96.6548673,6.96666667 C97.9233038,7.6 98.1769912,8.23333333 98.8112094,9.5 C100.967552,4.43333333 104.519174,3.8 108.451327,6.33333333 C103.884956,7.98 103.123894,11.4 102.99705,19.8866667 L102.99705,19.8866667 Z M54.2890855,66.5 C54.2890855,66.5 54.0353982,65.36 53.9085546,64.6 C53.7817109,63.7133333 53.7817109,62.7 53.7817109,62.7 C53.7817109,62.7 53.4011799,62.32 52.7669617,61.94 C52.0058997,61.6866667 51.3716814,61.6866667 51.3716814,61.6866667 C51.3716814,61.6866667 51.4985251,62.1933333 51.6253687,62.8266667 C51.7522124,63.46 51.7522124,64.0933333 51.7522124,64.0933333 C51.7522124,64.0933333 52.5132743,64.4733333 53.020649,64.98 C53.6548673,65.4866667 54.2890855,66.5 54.2890855,66.5 L54.2890855,66.5 Z M61.899705,61.6866667 C61.899705,61.6866667 61.2654867,61.6866667 60.5044248,61.94 C59.7433628,62.32 59.4896755,62.7 59.4896755,62.7 C59.4896755,62.7 59.4896755,63.7133333 59.3628319,64.6 C59.2359882,65.36 58.9823009,66.5 58.9823009,66.5 C58.9823009,66.5 59.6165192,65.4866667 60.2507375,64.98 C60.7581121,64.4733333 61.519174,64.0933333 61.519174,64.0933333 C61.519174,64.0933333 61.519174,63.46 61.6460177,62.8266667 C61.7728614,62.1933333 61.899705,61.6866667 61.899705,61.6866667 L61.899705,61.6866667 Z M88.2831858,120.08 C89.0442478,120.966667 89.6784661,121.22 90.0589971,121.22 C90.820059,121.22 91.4542773,120.333333 91.7079646,120.08 C91.8348083,119.826667 92.3421829,118.813333 92.9764012,118.813333 C93.4837758,118.686667 93.7374631,119.32 93.7374631,119.32 C93.7374631,119.32 93.8643068,118.94 93.8643068,118.813333 C93.8643068,118.306667 93.6106195,118.053333 93.3569322,118.053333 C92.5958702,117.673333 91.5811209,118.56 91.3274336,118.813333 C90.3126844,119.573333 89.4247788,119.193333 88.6637168,118.686667 C87.3952802,117.8 87.3952802,116.026667 87.3952802,116.026667 L86.8879056,116.153333 C86.8879056,116.153333 86.7610619,117.04 87.0147493,117.673333 C87.2684366,118.94 88.0294985,119.826667 88.2831858,120.08 L88.2831858,120.08 Z M84.4778761,109.313333 C84.2241888,108.3 83.7168142,106.78 83.3362832,106.02 C82.1946903,103.74 80.6725664,103.106667 79.9115044,102.853333 C78.3893805,102.22 76.9941003,102.98 76.4867257,103.866667 C75.2182891,105.766667 75.979351,107.666667 76.4867257,108.3 C77.120944,109.186667 78.6430678,110.833333 79.0235988,111.34 C80.0383481,112.606667 79.7846608,113.366667 79.5309735,113.746667 C78.8967552,114.38 77.8820059,113.746667 77.8820059,113.746667 C77.8820059,113.746667 78.0088496,114.38 78.6430678,114.633333 C79.7846608,115.14 80.4188791,114.633333 80.79941,114.253333 C81.560472,113.366667 81.0530973,112.226667 80.6725664,111.72 C80.4188791,111.34 80.0383481,110.706667 79.9115044,110.326667 C79.2772861,109.313333 79.7846608,108.046667 80.2920354,107.54 C81.4336283,106.526667 82.5752212,107.286667 83.0825959,108.3 C83.9705015,109.566667 84.3510324,111.466667 84.3510324,111.466667 C84.3510324,111.466667 84.4778761,111.34 84.6047198,111.34 C84.7315634,111.34 84.8584071,111.213333 84.8584071,111.213333 C84.8584071,111.213333 84.7315634,110.073333 84.4778761,109.313333 L84.4778761,109.313333 Z M82.1946903,102.98 C82.7020649,103.486667 83.4631268,104.5 83.4631268,104.5 C83.4631268,104.5 83.0825959,103.486667 82.9557522,102.6 C82.8289086,101.84 82.8289086,100.7 82.8289086,100.7 C82.8289086,100.7 82.5752212,100.32 81.8141593,99.94 C81.0530973,99.6866667 80.4188791,99.6866667 80.4188791,99.6866667 C80.4188791,99.6866667 80.5457227,100.193333 80.6725664,100.826667 L80.9262537,102.093333 C80.9262537,102.093333 81.560472,102.473333 82.1946903,102.98 L82.1946903,102.98 Z M78.0088496,118.053333 C77.8820059,118.053333 77.6283186,118.306667 77.6283186,118.813333 C77.6283186,118.94 77.7551622,119.32 77.7551622,119.32 C77.7551622,119.32 78.0088496,118.686667 78.5162242,118.813333 C79.1504425,118.813333 79.5309735,119.826667 79.7846608,120.08 C80.0383481,120.333333 80.6725664,121.22 81.3067847,121.22 C81.8141593,121.22 82.4483776,120.966667 83.2094395,120.08 C83.4631268,119.826667 84.2241888,118.94 84.4778761,117.673333 C84.6047198,117.04 84.6047198,116.153333 84.6047198,116.153333 L84.0973451,116.026667 C84.0973451,116.026667 84.0973451,117.8 82.8289086,118.686667 C82.0678466,119.193333 81.179941,119.573333 80.1651917,118.813333 C79.9115044,118.56 78.8967552,117.673333 78.0088496,118.053333 L78.0088496,118.053333 Z M85.7463127,111.973333 C84.3510324,111.973333 83.3362832,112.733333 83.3362832,113.62 C83.3362832,114.506667 84.3510324,115.266667 85.7463127,115.266667 C87.0147493,115.266667 88.1563422,114.506667 88.1563422,113.62 C88.1563422,112.733333 87.0147493,111.973333 85.7463127,111.973333 L85.7463127,111.973333 Z M86.8879056,122.106667 C87.3952802,121.346667 87.5221239,120.333333 87.5221239,120.333333 C87.5221239,120.333333 87.0147493,119.826667 86.5073746,118.813333 C86,117.546667 86.1268437,116.28 86.1268437,116.28 L85.8731563,116.28 L85.7463127,116.28 L85.4926254,116.28 L85.3657817,116.28 C85.3657817,116.28 85.4926254,117.546667 84.8584071,118.813333 C84.4778761,119.826667 83.8436578,120.333333 83.8436578,120.333333 C83.8436578,120.333333 84.0973451,121.346667 84.6047198,122.106667 C84.9852507,122.866667 85.7463127,123.753333 85.7463127,123.753333 C85.7463127,123.753333 86.380531,122.866667 86.8879056,122.106667 L86.8879056,122.106667 Z M65.8318584,141.106667 C66.339233,140.473333 67.100295,138.573333 65.8318584,136.673333 C65.3244838,135.786667 63.9292035,135.026667 62.4070796,135.66 C61.7728614,135.913333 60.1238938,136.546667 59.1091445,138.826667 C58.7286136,139.586667 58.0943953,141.106667 57.840708,142.12 C57.7138643,142.88 57.460177,144.02 57.460177,144.02 C57.460177,144.02 57.5870206,144.02 57.7138643,144.146667 L57.9675516,144.146667 C57.9675516,144.146667 58.3480826,142.373333 59.2359882,140.98 C59.8702065,140.093333 61.0117994,139.333333 62.0265487,140.346667 C62.660767,140.853333 63.0412979,142.12 62.5339233,143.133333 C62.280236,143.513333 61.899705,144.146667 61.6460177,144.526667 C61.3923304,145.033333 60.8849558,146.173333 61.519174,146.933333 C62.0265487,147.44 62.5339233,147.946667 63.6755162,147.44 C64.3097345,147.186667 64.5634218,146.553333 64.5634218,146.553333 C64.5634218,146.553333 63.4218289,147.186667 62.7876106,146.426667 C62.5339233,146.173333 62.280236,145.413333 63.4218289,144.146667 C63.8023599,143.64 65.3244838,141.993333 65.8318584,141.106667 L65.8318584,141.106667 Z M61.6460177,133.633333 C61.7728614,133 61.899705,132.493333 61.899705,132.493333 C61.899705,132.493333 61.2654867,132.493333 60.5044248,132.746667 C59.7433628,133.126667 59.4896755,133.38 59.4896755,133.38 C59.4896755,133.38 59.4896755,134.52 59.3628319,135.28 C59.2359882,136.166667 58.9823009,137.18 58.9823009,137.18 C58.9823009,137.18 59.6165192,136.293333 60.2507375,135.786667 C60.7581121,135.28 61.519174,134.9 61.519174,134.9 C61.519174,134.9 61.519174,134.266667 61.6460177,133.633333 L61.6460177,133.633333 Z M56.5722714,144.02 C56.5722714,144.02 57.460177,140.093333 57.7138643,139.206667 C58.6017699,135.406667 58.6017699,133.506667 58.2212389,131.48 C57.840708,130.086667 56.5722714,128.44 56.5722714,128.44 C56.5722714,128.44 55.4306785,130.086667 55.0501475,131.48 C54.6696165,133.506667 54.6696165,135.406667 55.5575221,139.206667 C55.8112094,140.093333 56.5722714,144.02 56.5722714,144.02 L56.5722714,144.02 Z M56.5722714,144.78 C55.3038348,144.78 54.1622419,145.54 54.1622419,146.426667 C54.1622419,147.313333 55.3038348,148.073333 56.5722714,148.073333 C57.9675516,148.073333 58.9823009,147.313333 58.9823009,146.426667 C58.9823009,145.54 57.9675516,144.78 56.5722714,144.78 L56.5722714,144.78 Z M59.2359882,152.886667 C59.9970501,153.773333 60.6312684,154.026667 61.0117994,154.026667 C61.6460177,154.026667 62.4070796,153.14 62.5339233,152.886667 C62.7876106,152.633333 63.1681416,151.62 63.8023599,151.62 C64.3097345,151.493333 64.6902655,152.126667 64.6902655,152.126667 L64.6902655,151.62 C64.8171091,151.113333 64.5634218,150.86 64.3097345,150.733333 C63.5486726,150.48 62.4070796,151.366667 62.280236,151.493333 C61.1386431,152.38 60.2507375,151.873333 59.6165192,151.493333 C58.2212389,150.48 58.2212389,148.833333 58.2212389,148.833333 L57.7138643,148.96 C57.7138643,148.96 57.7138643,149.72 57.840708,150.48 C58.2212389,151.62 58.9823009,152.633333 59.2359882,152.886667 L59.2359882,152.886667 Z M54.7964602,153.14 C54.7964602,153.14 55.0501475,154.153333 55.4306785,154.786667 C55.9380531,155.673333 56.5722714,156.56 56.5722714,156.56 C56.5722714,156.56 57.3333333,155.673333 57.840708,154.786667 C58.2212389,154.153333 58.4749263,153.14 58.4749263,153.14 C58.4749263,153.14 57.840708,152.506667 57.460177,151.62 C56.8259587,150.353333 57.079646,148.96 57.079646,148.96 L56.8259587,148.96 L56.5722714,148.96 L56.4454277,148.96 L56.1917404,148.96 C56.1917404,148.96 56.4454277,150.353333 55.8112094,151.62 C55.4306785,152.506667 54.7964602,153.14 54.7964602,153.14 L54.7964602,153.14 Z M48.4542773,151.62 C48.5811209,151.746667 48.5811209,152.126667 48.5811209,152.126667 C48.5811209,152.126667 48.8348083,151.493333 49.4690265,151.62 C49.9764012,151.62 50.4837758,152.633333 50.7374631,152.886667 C50.8643068,153.14 51.4985251,154.026667 52.259587,154.026667 C52.640118,154.026667 53.2743363,153.773333 54.0353982,152.886667 C54.2890855,152.633333 55.0501475,151.62 55.4306785,150.48 C55.5575221,149.72 55.4306785,148.96 55.4306785,148.96 L55.0501475,148.833333 C55.0501475,148.833333 54.9233038,150.48 53.6548673,151.493333 C53.020649,151.873333 52.1327434,152.38 50.9911504,151.493333 C50.8643068,151.366667 49.7227139,150.48 48.9616519,150.733333 C48.7079646,150.86 48.4542773,151.113333 48.4542773,151.62 L48.4542773,151.62 Z M47.3126844,136.673333 C46.1710914,138.573333 46.9321534,140.473333 47.3126844,141.106667 C47.9469027,141.993333 49.4690265,143.64 49.8495575,144.146667 C50.9911504,145.413333 50.6106195,146.173333 50.3569322,146.426667 C49.7227139,147.186667 48.7079646,146.553333 48.7079646,146.553333 C48.7079646,146.553333 48.9616519,147.186667 49.5958702,147.44 C50.7374631,147.946667 51.2448378,147.44 51.6253687,146.933333 C52.3864307,146.173333 51.879056,145.033333 51.6253687,144.526667 C51.3716814,144.146667 50.9911504,143.513333 50.7374631,143.133333 C50.1032448,142.12 50.6106195,140.853333 51.2448378,140.346667 C52.259587,139.333333 53.4011799,140.093333 54.0353982,140.98 C54.9233038,142.373333 55.3038348,144.146667 55.3038348,144.146667 L55.5575221,144.146667 C55.6843658,144.02 55.8112094,144.02 55.8112094,144.02 C55.8112094,144.02 55.5575221,142.88 55.3038348,142.12 C55.0501475,141.106667 54.5427729,139.586667 54.1622419,138.826667 C53.1474926,136.546667 51.4985251,135.913333 50.8643068,135.66 C49.3421829,135.026667 47.9469027,135.786667 47.3126844,136.673333 L47.3126844,136.673333 Z M53.020649,135.786667 C53.6548673,136.293333 54.2890855,137.18 54.2890855,137.18 C54.2890855,137.18 54.0353982,136.166667 53.9085546,135.28 C53.7817109,134.52 53.7817109,133.38 53.7817109,133.38 C53.7817109,133.38 53.4011799,133.126667 52.7669617,132.746667 C52.0058997,132.493333 51.3716814,132.493333 51.3716814,132.493333 C51.3716814,132.493333 51.4985251,133 51.6253687,133.633333 C51.7522124,134.266667 51.7522124,134.9 51.7522124,134.9 C51.7522124,134.9 52.5132743,135.28 53.020649,135.786667 L53.020649,135.786667 Z M25.7492625,120.333333 C25.7492625,120.333333 25.8761062,121.346667 26.3834808,122.106667 C26.7640118,122.866667 27.5250737,123.753333 27.5250737,123.753333 C27.5250737,123.753333 28.159292,122.866667 28.6666667,122.106667 C29.1740413,121.346667 29.300885,120.333333 29.300885,120.333333 C29.300885,120.333333 28.7935103,119.826667 28.4129794,118.813333 C27.7787611,117.546667 27.9056047,116.28 27.9056047,116.28 L27.6519174,116.28 L27.5250737,116.28 L27.2713864,116.28 L27.1445428,116.28 C27.1445428,116.28 27.2713864,117.546667 26.6371681,118.813333 C26.2566372,119.826667 25.7492625,120.333333 25.7492625,120.333333 L25.7492625,120.333333 Z M33.359882,102.853333 C32.5988201,103.106667 31.0766962,103.74 29.9351032,106.02 C29.5545723,106.78 29.0471976,108.3 28.7935103,109.313333 C28.539823,110.073333 28.2861357,111.213333 28.2861357,111.213333 C28.2861357,111.213333 28.4129794,111.34 28.539823,111.34 C28.6666667,111.34 28.7935103,111.466667 28.7935103,111.466667 C28.7935103,111.466667 29.300885,109.566667 30.1887906,108.3 C30.6961652,107.286667 31.8377581,106.526667 32.979351,107.54 C33.4867257,108.046667 33.9941003,109.313333 33.359882,110.326667 C33.2330383,110.706667 32.8525074,111.34 32.5988201,111.72 C32.2182891,112.226667 31.7109145,113.366667 32.4719764,114.253333 C32.8525074,114.633333 33.4867257,115.14 34.5014749,114.633333 C35.2625369,114.38 35.3893805,113.746667 35.3893805,113.746667 C35.3893805,113.746667 34.3746313,114.38 33.740413,113.746667 C33.4867257,113.366667 33.2330383,112.606667 34.2477876,111.34 C34.6283186,110.833333 36.1504425,109.186667 36.7846608,108.3 C37.1651917,107.666667 38.0530973,105.766667 36.7846608,103.866667 C36.1504425,102.98 34.7551622,102.22 33.359882,102.853333 L33.359882,102.853333 Z M32.5988201,100.826667 C32.7256637,100.193333 32.8525074,99.6866667 32.8525074,99.6866667 C32.8525074,99.6866667 32.0914454,99.6866667 31.4572271,99.94 C30.6961652,100.32 30.4424779,100.7 30.4424779,100.7 C30.4424779,100.7 30.4424779,101.84 30.3156342,102.6 C30.0619469,103.486667 29.8082596,104.5 29.8082596,104.5 C29.8082596,104.5 30.4424779,103.486667 31.0766962,102.98 C31.7109145,102.473333 32.3451327,102.093333 32.3451327,102.093333 C32.3451327,102.093333 32.4719764,101.46 32.5988201,100.826667 L32.5988201,100.826667 Z M29.9351032,113.62 C29.9351032,112.733333 28.7935103,111.973333 27.5250737,111.973333 C26.1297935,111.973333 25.1150442,112.733333 25.1150442,113.62 C25.1150442,114.506667 26.1297935,115.266667 27.5250737,115.266667 C28.7935103,115.266667 29.9351032,114.506667 29.9351032,113.62 L29.9351032,113.62 Z M35.6430678,118.813333 C35.6430678,118.306667 35.3893805,118.053333 35.1356932,118.053333 C34.3746313,117.673333 33.359882,118.56 33.1061947,118.813333 C32.0914454,119.573333 31.2035398,119.193333 30.4424779,118.686667 C29.1740413,117.8 29.1740413,116.026667 29.1740413,116.026667 L28.6666667,116.153333 C28.6666667,116.153333 28.539823,117.04 28.7935103,117.673333 C29.0471976,118.94 29.8082596,119.826667 30.0619469,120.08 C30.8230088,120.966667 31.4572271,121.22 31.8377581,121.22 C32.5988201,121.22 33.2330383,120.333333 33.4867257,120.08 C33.6135693,119.826667 34.120944,118.813333 34.7551622,118.813333 C35.2625369,118.686667 35.5162242,119.32 35.5162242,119.32 C35.5162242,119.32 35.6430678,118.94 35.6430678,118.813333 L35.6430678,118.813333 Z M19.4070796,118.813333 C19.4070796,118.94 19.5339233,119.32 19.5339233,119.32 C19.5339233,119.32 19.7876106,118.686667 20.2949853,118.813333 C20.9292035,118.813333 21.4365782,119.826667 21.5634218,120.08 C21.8171091,120.333333 22.4513274,121.22 23.0855457,121.22 C23.5929204,121.22 24.2271386,120.966667 24.9882006,120.08 C25.2418879,119.826667 26.0029499,118.94 26.2566372,117.673333 C26.5103245,117.04 26.3834808,116.153333 26.3834808,116.153333 L25.8761062,116.026667 C25.8761062,116.026667 25.8761062,117.8 24.6076696,118.686667 C23.8466077,119.193333 22.9587021,119.573333 21.9439528,118.813333 C21.6902655,118.56 20.6755162,117.673333 19.9144543,118.053333 C19.660767,118.053333 19.4070796,118.306667 19.4070796,118.813333 L19.4070796,118.813333 Z M21.6902655,102.853333 C20.1681416,102.22 18.7728614,102.98 18.2654867,103.866667 C16.9970501,105.766667 17.7581121,107.666667 18.2654867,108.3 C18.899705,109.186667 20.4218289,110.833333 20.8023599,111.34 C21.8171091,112.606667 21.5634218,113.366667 21.3097345,113.746667 C20.6755162,114.38 19.660767,113.746667 19.660767,113.746667 C19.660767,113.746667 19.7876106,114.38 20.4218289,114.633333 C21.5634218,115.14 22.1976401,114.633333 22.5781711,114.253333 C23.339233,113.366667 22.8318584,112.226667 22.4513274,111.72 C22.1976401,111.34 21.8171091,110.706667 21.6902655,110.326667 C21.0560472,109.313333 21.5634218,108.046667 22.0707965,107.54 C23.2123894,106.526667 24.3539823,107.286667 24.8613569,108.3 C25.7492625,109.566667 26.1297935,111.466667 26.1297935,111.466667 C26.1297935,111.466667 26.2566372,111.34 26.3834808,111.34 C26.5103245,111.34 26.7640118,111.213333 26.7640118,111.213333 C26.7640118,111.213333 26.5103245,110.073333 26.2566372,109.313333 C26.0029499,108.3 25.4955752,106.78 25.1150442,106.02 C23.9734513,103.74 22.4513274,103.106667 21.6902655,102.853333 L21.6902655,102.853333 Z M25.2418879,104.5 C25.2418879,104.5 24.8613569,103.486667 24.7345133,102.6 C24.6076696,101.84 24.6076696,100.7 24.6076696,100.7 C24.6076696,100.7 24.3539823,100.32 23.5929204,99.94 C22.8318584,99.6866667 22.1976401,99.6866667 22.1976401,99.6866667 C22.1976401,99.6866667 22.3244838,100.193333 22.4513274,100.826667 C22.5781711,101.46 22.7050147,102.093333 22.7050147,102.093333 C22.7050147,102.093333 23.339233,102.473333 23.9734513,102.98 C24.480826,103.486667 25.2418879,104.5 25.2418879,104.5 L25.2418879,104.5 Z M28.539823,106.4 C29.4277286,102.6 29.4277286,100.7 29.0471976,98.8 C28.7935103,97.28 27.5250737,95.6333333 27.5250737,95.6333333 C27.5250737,95.6333333 26.2566372,97.28 26.0029499,98.8 C25.6224189,100.7 25.6224189,102.6 26.5103245,106.4 C26.6371681,107.286667 27.5250737,111.213333 27.5250737,111.213333 C27.5250737,111.213333 28.4129794,107.286667 28.539823,106.4 L28.539823,106.4 Z M50.8643068,64.8533333 C49.3421829,64.22 47.9469027,64.98 47.3126844,65.8666667 C46.1710914,67.7666667 46.9321534,69.6666667 47.3126844,70.3 C47.9469027,71.1866667 49.4690265,72.8333333 49.8495575,73.34 C50.9911504,74.6066667 50.6106195,75.3666667 50.3569322,75.62 C49.7227139,76.38 48.7079646,75.7466667 48.7079646,75.7466667 C48.7079646,75.7466667 48.9616519,76.38 49.5958702,76.6333333 C50.7374631,77.14 51.2448378,76.6333333 51.6253687,76.2533333 C52.3864307,75.3666667 51.879056,74.2266667 51.6253687,73.72 C51.3716814,73.34 50.9911504,72.7066667 50.7374631,72.3266667 C50.1032448,71.3133333 50.6106195,70.0466667 51.2448378,69.54 C52.259587,68.5266667 53.4011799,69.2866667 54.0353982,70.3 C54.9233038,71.5666667 55.3038348,73.4666667 55.3038348,73.4666667 C55.3038348,73.4666667 55.4306785,73.34 55.5575221,73.34 C55.6843658,73.34 55.8112094,73.2133333 55.8112094,73.2133333 C55.8112094,73.2133333 55.5575221,72.0733333 55.3038348,71.3133333 C55.0501475,70.3 54.5427729,68.78 54.1622419,68.02 C53.1474926,65.74 51.4985251,65.1066667 50.8643068,64.8533333 L50.8643068,64.8533333 Z M59.6165192,80.6866667 C58.2212389,79.6733333 58.2212389,78.0266667 58.2212389,78.0266667 L57.7138643,78.1533333 C57.7138643,78.1533333 57.7138643,78.9133333 57.840708,79.6733333 C58.2212389,80.8133333 58.9823009,81.8266667 59.2359882,82.08 C59.9970501,82.9666667 60.6312684,83.22 61.0117994,83.22 C61.6460177,83.22 62.4070796,82.3333333 62.5339233,82.08 C62.7876106,81.8266667 63.1681416,80.8133333 63.8023599,80.8133333 C64.3097345,80.6866667 64.6902655,81.32 64.6902655,81.32 L64.6902655,80.8133333 C64.8171091,80.3066667 64.5634218,80.0533333 64.3097345,80.0533333 C63.5486726,79.6733333 62.4070796,80.56 62.280236,80.6866667 C61.1386431,81.5733333 60.2507375,81.1933333 59.6165192,80.6866667 L59.6165192,80.6866667 Z M56.5722714,77.2666667 C57.9675516,77.2666667 58.9823009,76.5066667 58.9823009,75.62 C58.9823009,74.7333333 57.9675516,73.9733333 56.5722714,73.9733333 C55.3038348,73.9733333 54.1622419,74.7333333 54.1622419,75.62 C54.1622419,76.5066667 55.3038348,77.2666667 56.5722714,77.2666667 L56.5722714,77.2666667 Z M58.4749263,82.3333333 C58.4749263,82.3333333 57.840708,81.7 57.460177,80.8133333 C56.8259587,79.5466667 57.079646,78.1533333 57.079646,78.1533333 C57.079646,78.1533333 56.9528024,78.28 56.8259587,78.28 L56.5722714,78.28 L56.4454277,78.28 C56.3185841,78.28 56.1917404,78.1533333 56.1917404,78.1533333 C56.1917404,78.1533333 56.4454277,79.5466667 55.8112094,80.8133333 C55.4306785,81.7 54.7964602,82.3333333 54.7964602,82.3333333 C54.7964602,82.3333333 55.0501475,83.3466667 55.4306785,83.98 C55.9380531,84.8666667 56.5722714,85.7533333 56.5722714,85.7533333 C56.5722714,85.7533333 57.3333333,84.8666667 57.840708,83.98 C58.2212389,83.3466667 58.4749263,82.3333333 58.4749263,82.3333333 L58.4749263,82.3333333 Z M54.0353982,82.08 C54.2890855,81.8266667 55.0501475,80.8133333 55.4306785,79.6733333 C55.5575221,78.9133333 55.4306785,78.1533333 55.4306785,78.1533333 L55.0501475,78.0266667 C55.0501475,78.0266667 54.9233038,79.6733333 53.6548673,80.6866667 C53.020649,81.1933333 52.1327434,81.5733333 50.9911504,80.6866667 C50.8643068,80.56 49.7227139,79.6733333 48.9616519,80.0533333 C48.7079646,80.0533333 48.4542773,80.3066667 48.4542773,80.8133333 C48.5811209,80.94 48.5811209,81.32 48.5811209,81.32 C48.5811209,81.32 48.8348083,80.6866667 49.4690265,80.8133333 C49.9764012,80.8133333 50.4837758,81.8266667 50.7374631,82.08 C50.8643068,82.3333333 51.4985251,83.22 52.259587,83.22 C52.640118,83.22 53.2743363,82.9666667 54.0353982,82.08 L54.0353982,82.08 Z M57.7138643,68.4 C58.6017699,64.6 58.6017699,62.7 58.2212389,60.8 C57.840708,59.28 56.5722714,57.6333333 56.5722714,57.6333333 C56.5722714,57.6333333 55.4306785,59.28 55.0501475,60.8 C54.6696165,62.7 54.6696165,64.6 55.5575221,68.4 C55.8112094,69.2866667 56.5722714,73.2133333 56.5722714,73.2133333 C56.5722714,73.2133333 57.460177,69.2866667 57.7138643,68.4 L57.7138643,68.4 Z M65.8318584,70.3 C66.339233,69.6666667 67.100295,67.7666667 65.8318584,65.8666667 C65.3244838,64.98 63.9292035,64.22 62.4070796,64.8533333 C61.7728614,65.1066667 60.1238938,65.74 59.1091445,68.02 C58.7286136,68.78 58.0943953,70.3 57.840708,71.3133333 C57.7138643,72.0733333 57.460177,73.2133333 57.460177,73.2133333 C57.460177,73.2133333 57.5870206,73.34 57.7138643,73.34 C57.840708,73.34 57.9675516,73.4666667 57.9675516,73.4666667 C57.9675516,73.4666667 58.3480826,71.5666667 59.2359882,70.3 C59.8702065,69.2866667 61.0117994,68.5266667 62.0265487,69.54 C62.660767,70.0466667 63.0412979,71.3133333 62.5339233,72.3266667 C62.280236,72.7066667 61.899705,73.34 61.6460177,73.72 C61.3923304,74.2266667 60.8849558,75.3666667 61.519174,76.2533333 C62.0265487,76.6333333 62.5339233,77.14 63.6755162,76.6333333 C64.3097345,76.38 64.5634218,75.7466667 64.5634218,75.7466667 C64.5634218,75.7466667 63.4218289,76.38 62.7876106,75.62 C62.5339233,75.3666667 62.280236,74.6066667 63.4218289,73.34 C63.8023599,72.8333333 65.3244838,71.1866667 65.8318584,70.3 L65.8318584,70.3 Z M62.5339233,96.52 L56.5722714,106.78 L50.7374631,96.52 L56.5722714,96.52 L62.5339233,96.52 Z M86.5073746,135.026667 C86.5073746,135.026667 86.380531,135.406667 84.2241888,135.913333 C82.0678466,136.42 81.3067847,134.14 81.179941,133.633333 C80.2920354,131.226667 78.7699115,130.973333 77.3746313,130.593333 C76.1061947,130.086667 72.1740413,128.946667 71.4129794,128.82 C69.3834808,128.186667 69.5103245,127.553333 69.7640118,127.3 C70.1445428,126.666667 71.6666667,127.3 72.5545723,127.68 C74.2035398,128.186667 75.2182891,128.313333 75.979351,128.313333 C77.5014749,128.06 77.7551622,126.286667 77.3746313,125.146667 C76.9941003,124.133333 67.2271386,97.28 67.2271386,97.28 L70.0176991,97.28 C70.0176991,97.28 71.0324484,93.3533333 71.6666667,91.58 C73.1887906,87.4 74.7109145,85.7533333 75.3451327,85.3733333 C77.7551622,83.8533333 78.5162242,85.3733333 78.6430678,85.88 C79.1504425,87.4 78.2625369,88.2866667 78.2625369,88.2866667 C78.2625369,88.2866667 78.6430678,88.4133333 79.1504425,88.4133333 C79.9115044,88.4133333 80.4188791,88.0333333 81.0530973,87.5266667 C82.3215339,86.1333333 81.179941,84.2333333 81.179941,84.2333333 C81.179941,84.2333333 82.9557522,83.98 83.7168142,81.4466667 C84.7315634,78.28 81.3067847,76.1266667 81.3067847,76.1266667 C81.3067847,76.1266667 81.560472,76.2533333 81.3067847,77.7733333 C81.0530973,79.2933333 78.3893805,79.9266667 77.120944,80.3066667 C74.3303835,80.94 72.1740413,83.0933333 71.0324484,84.4866667 C69.5103245,86.26 68.3687316,90.1866667 68.3687316,90.1866667 L56.5722714,90.1866667 L44.9026549,90.1866667 C44.9026549,90.1866667 43.7610619,86.26 42.2389381,84.4866667 C40.9705015,83.0933333 38.9410029,80.94 36.0235988,80.3066667 C34.8820059,79.9266667 32.2182891,79.2933333 31.9646018,77.7733333 C31.7109145,76.2533333 31.8377581,76.1266667 31.8377581,76.1266667 C31.8377581,76.1266667 28.539823,78.28 29.5545723,81.4466667 C30.3156342,83.98 32.0914454,84.2333333 32.0914454,84.2333333 C32.0914454,84.2333333 30.9498525,86.1333333 32.2182891,87.5266667 C32.7256637,88.0333333 33.359882,88.4133333 34.120944,88.4133333 C34.6283186,88.4133333 35.0088496,88.2866667 35.0088496,88.2866667 C35.0088496,88.2866667 33.9941003,87.4 34.6283186,85.88 C34.7551622,85.3733333 35.5162242,83.8533333 37.9262537,85.3733333 C38.4336283,85.7533333 40.0825959,87.4 41.6047198,91.58 C42.2389381,93.3533333 43.2536873,97.28 43.2536873,97.28 L45.9174041,97.28 C45.9174041,97.28 36.2772861,124.133333 35.8967552,125.146667 C35.5162242,126.286667 35.7699115,128.06 37.2920354,128.313333 C38.0530973,128.313333 39.0678466,128.186667 40.5899705,127.68 C41.6047198,127.3 43.1268437,126.666667 43.5073746,127.3 C43.7610619,127.553333 43.8879056,128.186667 41.8584071,128.82 C41.0973451,128.946667 37.1651917,130.086667 35.7699115,130.593333 C34.5014749,130.973333 32.8525074,131.226667 32.0914454,133.633333 C31.9646018,134.14 31.2035398,136.42 29.0471976,135.913333 C26.8908555,135.406667 26.7640118,135.026667 26.7640118,135.026667 C26.7640118,135.026667 28.0324484,138.193333 29.9351032,139.08 C33.6135693,140.98 35.8967552,138.066667 35.8967552,138.066667 C35.8967552,138.066667 36.9115044,139.08 38.8141593,138.7 C39.5752212,138.446667 40.2094395,137.94 40.7168142,137.433333 C40.8436578,137.18 41.0973451,136.8 41.0973451,136.8 C41.0973451,136.8 39.0678466,136.8 38.6873156,135.786667 C38.4336283,135.28 38.4336283,134.52 40.4631268,133.253333 C41.0973451,132.873333 44.0147493,131.226667 45.2831858,130.34 C46.5516224,129.453333 48.3274336,128.186667 47.439528,126.54 C46.8053097,125.273333 45.5368732,124.766667 45.5368732,124.766667 L50.4837758,105.766667 L56.5722714,115.773333 L62.660767,105.766667 L67.7345133,124.766667 C67.7345133,124.766667 66.4660767,125.273333 65.7050147,126.54 C64.9439528,128.186667 66.719764,129.453333 67.9882006,130.34 C69.2566372,131.226667 72.1740413,132.873333 72.8082596,133.253333 C74.8377581,134.52 74.8377581,135.28 74.5840708,135.786667 C74.2035398,136.8 72.1740413,136.8 72.1740413,136.8 C72.1740413,136.8 72.4277286,137.18 72.5545723,137.433333 C72.9351032,137.94 73.6961652,138.446667 74.4572271,138.7 C76.359882,139.08 77.3746313,138.066667 77.3746313,138.066667 C77.3746313,138.066667 79.6578171,140.98 83.3362832,139.08 C85.2389381,138.193333 86.5073746,135.026667 86.5073746,135.026667 L86.5073746,135.026667 Z M86.7610619,106.4 C87.6489676,102.6 87.6489676,100.7 87.2684366,98.8 C87.0147493,97.28 85.7463127,95.6333333 85.7463127,95.6333333 C85.7463127,95.6333333 84.4778761,97.28 84.2241888,98.8 C83.8436578,100.7 83.8436578,102.6 84.7315634,106.4 C84.8584071,107.286667 85.7463127,111.213333 85.7463127,111.213333 C85.7463127,111.213333 86.6342183,107.286667 86.7610619,106.4 L86.7610619,106.4 Z M91.0737463,99.6866667 C91.0737463,99.6866667 90.3126844,99.6866667 89.6784661,99.94 C88.9174041,100.32 88.5368732,100.7 88.5368732,100.7 C88.5368732,100.7 88.6637168,101.84 88.5368732,102.6 C88.2831858,103.486667 88.0294985,104.5 88.0294985,104.5 C88.0294985,104.5 88.6637168,103.486667 89.2979351,102.98 C89.8053097,102.473333 90.5663717,102.093333 90.5663717,102.093333 C90.5663717,102.093333 90.6932153,101.46 90.820059,100.826667 C90.9469027,100.193333 91.0737463,99.6866667 91.0737463,99.6866667 L91.0737463,99.6866667 Z M95.0058997,108.3 C95.3864307,107.666667 96.2743363,105.766667 95.0058997,103.866667 C94.3716814,102.98 92.9764012,102.22 91.5811209,102.853333 C90.820059,103.106667 89.2979351,103.74 88.1563422,106.02 C87.7758112,106.78 87.2684366,108.3 87.0147493,109.313333 C86.7610619,110.073333 86.5073746,111.213333 86.5073746,111.213333 C86.5073746,111.213333 86.6342183,111.34 86.7610619,111.34 C86.8879056,111.34 87.0147493,111.466667 87.0147493,111.466667 C87.0147493,111.466667 87.5221239,109.566667 88.2831858,108.3 C88.9174041,107.286667 90.0589971,106.526667 91.0737463,107.54 C91.7079646,108.046667 92.2153392,109.313333 91.5811209,110.326667 C91.4542773,110.706667 91.0737463,111.34 90.820059,111.72 C90.439528,112.226667 89.9321534,113.366667 90.6932153,114.253333 C91.0737463,114.633333 91.7079646,115.14 92.7227139,114.633333 C93.4837758,114.38 93.6106195,113.746667 93.6106195,113.746667 C93.6106195,113.746667 92.5958702,114.38 91.9616519,113.746667 C91.7079646,113.366667 91.4542773,112.606667 92.4690265,111.34 C92.8495575,110.833333 94.3716814,109.186667 95.0058997,108.3 L95.0058997,108.3 Z M99.8259587,50.0333333 L56.5722714,50.0333333 L13.4454277,50.0333333 C10.2743363,50.0333333 7.86430678,52.5666667 7.86430678,55.6066667 L7.86430678,143.26 C7.86430678,155.673333 17.8849558,165.68 30.3156342,165.68 L46.1710914,165.68 C48.20059,165.68 50.2300885,166.313333 51.7522124,167.2 C52.8938053,167.96 53.9085546,168.846667 54.7964602,169.86 C55.1769912,170.493333 55.9380531,170.746667 56.5722714,170.746667 C57.3333333,170.746667 57.9675516,170.493333 58.4749263,169.86 C59.3628319,168.846667 60.3775811,167.96 61.519174,167.2 C63.0412979,166.313333 64.9439528,165.68 67.100295,165.68 L82.9557522,165.68 C95.3864307,165.68 105.40708,155.673333 105.40708,143.26 L105.40708,55.6066667 C105.40708,52.5666667 102.870206,50.0333333 99.8259587,50.0333333 L99.8259587,50.0333333 Z M101.094395,143.26 C101.094395,153.266667 92.9764012,161.373333 82.9557522,161.373333 L67.100295,161.373333 C62.7876106,161.373333 58.8554572,163.146667 56.5722714,165.806667 C54.4159292,163.146667 50.4837758,161.5 46.1710914,161.5 L30.3156342,161.5 C20.2949853,161.5 12.0501475,153.266667 12.0501475,143.26 L12.0501475,55.6066667 C12.0501475,54.9733333 12.6843658,54.34 13.4454277,54.34 L56.5722714,54.34 L99.8259587,54.34 C100.587021,54.34 101.094395,54.9733333 101.094395,55.6066667 L101.094395,143.26 Z M124.053097,75.1133333 L124.053097,63.3333333 L176.058997,63.3333333 L176.058997,75.1133333 L157.032448,75.1133333 L157.032448,126.793333 L143.079646,126.793333 L143.079646,75.1133333 L124.053097,75.1133333 Z M229.967552,121.98 C225.274336,126.16 218.551622,128.186667 210.053097,128.186667 C201.554572,128.186667 194.831858,126.16 190.138643,121.98 C185.445428,117.8 183.035398,111.466667 183.035398,102.726667 L183.035398,63.3333333 L196.988201,63.3333333 L196.988201,102.726667 C196.988201,104.5 197.115044,106.146667 197.495575,107.793333 C197.749263,109.44 198.383481,110.96 199.39823,112.226667 C200.286136,113.493333 201.554572,114.506667 203.330383,115.393333 C204.979351,116.153333 207.262537,116.533333 210.053097,116.533333 C215.126844,116.533333 218.551622,115.393333 220.454277,113.24 C222.356932,110.96 223.244838,107.54 223.244838,102.726667 L223.244838,63.3333333 L237.19764,63.3333333 L237.19764,102.726667 C237.19764,111.34 234.787611,117.8 229.967552,121.98 L229.967552,121.98 Z M282.480826,63.3333333 C285.271386,63.3333333 287.80826,63.84 290.091445,64.7266667 C292.374631,65.6133333 294.40413,66.88 296.053097,68.5266667 C297.702065,70.0466667 298.843658,71.9466667 299.731563,74.1 C300.619469,76.1266667 301,78.4066667 301,80.8133333 C301,84.6133333 300.238938,87.78 298.716814,90.5666667 C297.067847,93.2266667 294.530973,95.38 290.979351,96.7733333 L290.979351,96.9 C292.755162,97.4066667 294.150442,98.1666667 295.292035,99.0533333 C296.433628,100.066667 297.321534,101.206667 297.955752,102.6 C298.716814,103.866667 299.224189,105.386667 299.60472,106.906667 C299.858407,108.553333 300.112094,110.2 300.238938,111.72 C300.238938,112.733333 300.365782,114 300.365782,115.266667 C300.492625,116.66 300.619469,118.053333 300.746313,119.446667 C300.873156,120.84 301.126844,122.233333 301.380531,123.5 C301.761062,124.766667 302.268437,125.906667 302.902655,126.793333 L288.949853,126.793333 C288.188791,124.766667 287.681416,122.36 287.554572,119.573333 C287.300885,116.786667 287.047198,114.126667 286.666667,111.593333 C286.286136,108.3 285.271386,105.893333 283.749263,104.246667 C282.100295,102.726667 279.690265,101.966667 276.138643,101.966667 L262.185841,101.966667 L262.185841,126.793333 L248.233038,126.793333 L248.233038,63.3333333 L282.480826,63.3333333 Z M277.40708,92.0866667 C280.705015,92.0866667 283.115044,91.3266667 284.637168,89.9333333 C286.286136,88.54 287.047198,86.1333333 287.047198,82.9666667 C287.047198,79.9266667 286.286136,77.6466667 284.637168,76.2533333 C283.115044,74.86 280.705015,74.2266667 277.40708,74.2266667 L262.185841,74.2266667 L262.185841,92.0866667 L277.40708,92.0866667 Z M325.60767,63.3333333 L325.60767,89.68 L350.469027,63.3333333 L367.846608,63.3333333 L342.985251,88.4133333 L370.256637,126.793333 L352.752212,126.793333 L333.59882,98.2933333 L325.60767,106.273333 L325.60767,126.793333 L311.654867,126.793333 L311.654867,63.3333333 L325.60767,63.3333333 Z M421.628319,121.98 C416.935103,126.16 410.212389,128.186667 401.713864,128.186667 C393.215339,128.186667 386.492625,126.16 381.79941,121.98 C377.106195,117.8 374.696165,111.466667 374.696165,102.726667 L374.696165,63.3333333 L388.648968,63.3333333 L388.648968,102.726667 C388.648968,104.5 388.775811,106.146667 389.156342,107.793333 C389.410029,109.44 390.044248,110.96 391.058997,112.226667 C391.946903,113.493333 393.215339,114.506667 394.99115,115.393333 C396.640118,116.153333 398.923304,116.533333 401.713864,116.533333 C406.787611,116.533333 410.212389,115.393333 412.115044,113.24 C414.017699,110.96 414.905605,107.54 414.905605,102.726667 L414.905605,63.3333333 L428.858407,63.3333333 L428.858407,102.726667 C428.858407,111.34 426.448378,117.8 421.628319,121.98 Z" transform="translate(42 15)"/>
</svg>
