<svg width="39px" height="48px" viewBox="0 0 39 48" version="1.1" xmlns="http://www.w3.org/2000/svg" xmlns:xlink="http://www.w3.org/1999/xlink">
    <defs>
        <linearGradient x1="50%" y1="0%" x2="50%" y2="100%" id="linearGradient-1">
            <stop stop-color="#FFCF45" offset="0%"></stop>
            <stop stop-color="#FAE67F" offset="100%"></stop>
        </linearGradient>
    </defs>
    <g id="Page-1" stroke="none" stroke-width="1" fill="none" fill-rule="evenodd">
        <path d="M36.4,19.3060514 C36.4,25.4512636 30.7062011,34.1906083 19.2,45.2419592 C7.69379891,34.1906083 2,25.4512636 2,19.3060514 C2,9.74572455 9.70317595,2 19.2,2 C28.696824,2 36.4,9.74572455 36.4,19.3060514 Z M19.5,30 C25.8512746,30 31,24.8512746 31,18.5 C31,12.1487254 25.8512746,7 19.5,7 C13.1487254,7 8,12.1487254 8,18.5 C8,24.8512746 13.1487254,30 19.5,30 Z" id="Combined-Shape" fill="url(#linearGradient-1)"></path>
        <path d="M19.5,30 C25.8512746,30 31,24.8512746 31,18.5 C31,12.1487254 25.8512746,7 19.5,7 C13.1487254,7 8,12.1487254 8,18.5 C8,24.8512746 13.1487254,30 19.5,30 Z M19.5,31 C12.5964406,31 7,25.4035594 7,18.5 C7,11.5964406 12.5964406,6 19.5,6 C26.4035594,6 32,11.5964406 32,18.5 C32,25.4035594 26.4035594,31 19.5,31 Z" id="Oval" fill="#FFFFFF" fill-rule="nonzero"></path>
        <path d="M19.2,48 C6.4,35.9789928 0,26.4143433 0,19.3060514 C0,8.64361368 8.5961328,0 19.2,0 C29.8038672,0 38.4,8.64361368 38.4,19.3060514 C38.4,26.4143433 32,35.9789928 19.2,48 Z M36.4,19.3060514 C36.4,9.74572455 28.696824,2 19.2,2 C9.70317595,2 2,9.74572455 2,19.3060514 C2,25.4512636 7.69379891,34.1906083 19.2,45.2419592 C30.7062011,34.1906083 36.4,25.4512636 36.4,19.3060514 Z" id="Combined-Shape-Copy" fill="#FFFFFF"></path>
    </g>
</svg>